<svg xmlns="http://www.w3.org/2000/svg" fill="none" viewBox="0 0 16 16">
  <path fill-rule="evenodd" d="M13.6 2.3C12.1.8 10.1 0 8 0 3.6 0 0 3.6 0 8c0 1.4.400006 2.8 1.10001 4L0 16l4.20001-1.1c1.2.6 2.49999 1 3.79999 1 4.4 0 8-3.6 8-8 0-2.1-.9-4.1-2.4-5.6ZM8 14.6c-1.2 0-2.39999-.3-3.39999-.9l-.20002-.1-2.5.7.70002-2.4-.20002-.3c-.7-1.1-1-2.3-1-3.5C1.39999 4.5 4.4 1.5 8 1.5c1.8 0 3.4.7 4.7 1.9 1.3 1.3 1.9 2.9 1.9 4.7 0 3.5-2.9 6.5-6.6 6.5Zm3.6-5c-.2-.1-1.2-.6-1.4-.6-.2-.1-.30001-.1-.40001.1-.1.2-.49998.6-.59998.8-.1.1-.20002.1-.40002.1-.2-.1-.79998-.3-1.59998-1-.6-.5-1-1.2-1.1-1.4-.1-.2 0-.3.1-.4.1-.1.19999-.2.29999-.3.1-.1.10001-.2.20001-.3.1-.1 0-.2 0-.3 0-.1-.4-1.1-.6-1.5-.1-.3-.3-.3-.4-.3h-.40002c-.1 0-.3 0-.5.2s-.69998.7-.69998 1.7.69998 1.9.79998 2.1c.1.1 1.4 2.2 3.4 3 1.7.7 2.00001.5 2.40001.5.4 0 1.2-.5 1.3-.9.2-.5.2-.9.1-.9-.1-.5-.3-.5-.5-.6Z" clip-rule="evenodd"/>
</svg>